<?xml version="1.0" encoding="utf-8"?>
<!-- Generator: Adobe Illustrator 16.0.0, SVG Export Plug-In . SVG Version: 6.00 Build 0)  -->
<!DOCTYPE svg PUBLIC "-//W3C//DTD SVG 1.1//EN" "http://www.w3.org/Graphics/SVG/1.1/DTD/svg11.dtd">
<svg version="1.1" id="Ebene_1" xmlns="http://www.w3.org/2000/svg" xmlns:xlink="http://www.w3.org/1999/xlink" x="0px" y="0px"
	 width="959px" height="268px" viewBox="0 0 959 268" enable-background="new 0 0 959 268" xml:space="preserve">
<rect x="-1" width="960" height="268"/>
<polyline fill="none" stroke="#FFFFFF" stroke-width="3" stroke-miterlimit="10" points="-7,69.878 122,19 183,113 298,81.504 
	396,130 456.746,46.787 562,123 687,74.5 905.12,118 993,63 "/>
<polygon fill="none" points="-16.734,145.856 64.784,64.914 0,129.24 "/>
<polygon fill="none" points="64.784,64.914 0,129.24 0,129.24 "/>
<polygon points="843.533,133.914 809.623,84.09 776.737,128.297 776.257,128.438 653.697,164.66 551.891,83.476 509.007,122.686 
	398.265,88.646 295.626,158.948 221.322,83.124 121.733,101.583 64.784,64.914 0,129.24 0,167 960,167 960,154.833 960,150.709 
	960,150.576 960,146.452 960,143.049 916.038,98.816 "/>
<polygon fill="#FFFFFF" points="916.657,95.184 844.557,130.086 809.732,78.918 774.927,125.703 654.346,161.34 551.758,79.532 
	508.249,119.314 398.454,85.566 397.763,85.354 296.007,155.052 222.905,80.454 222.346,79.884 122.356,98.417 64.382,61.086 
	0,125.014 0,129.24 64.784,64.914 121.733,101.583 221.322,83.124 295.626,158.948 398.265,88.646 509.007,122.686 551.891,83.476 
	653.697,164.66 776.257,128.438 776.737,128.297 809.623,84.09 843.533,133.914 916.038,98.816 960,143.049 960,138.925 
	960,138.792 "/>
<polyline fill="none" stroke="#FFFFFF" stroke-width="3" stroke-miterlimit="10" points="456.746,46.787 474.213,94.333 
	462.671,89.667 470.211,107.623 "/>
<polyline fill="none" stroke="#FFFFFF" stroke-width="3" stroke-miterlimit="10" points="122,19 109.334,61.086 106.001,40.043 
	96.091,81.504 "/>
<polyline fill="none" stroke="#FFFFFF" stroke-width="3" stroke-miterlimit="10" points="296.66,81.871 312.667,120.333 
	292.001,107.623 321.492,141.231 "/>
<polyline fill="none" stroke="#FFFFFF" stroke-width="3" stroke-miterlimit="10" points="687.556,75.5 715.799,121.362 
	679.335,112.039 725.503,141.31 "/>
<polyline fill="none" stroke="#FFFFFF" stroke-width="3" stroke-miterlimit="10" points="-7,175.668 83.334,145.856 
	161.334,175.668 232.331,160.762 288.668,209.668 295.334,233.668 321.492,242.335 355.334,236.335 374,209.668 423.334,185.668 
	508.379,197.001 556.001,185.001 654.668,209.668 720.668,189.668 802.668,194.096 890.001,164.66 976.668,194.096 "/>
</svg>
