<?xml version="1.0" encoding="utf-8"?>
<!-- Generator: Adobe Illustrator 16.0.0, SVG Export Plug-In . SVG Version: 6.00 Build 0)  -->
<!DOCTYPE svg PUBLIC "-//W3C//DTD SVG 1.1//EN" "http://www.w3.org/Graphics/SVG/1.1/DTD/svg11.dtd">
<svg version="1.1" id="Ebene_1" xmlns="http://www.w3.org/2000/svg" xmlns:xlink="http://www.w3.org/1999/xlink" x="0px" y="0px"
	 width="269.072px" height="88.316px" viewBox="0 0 269.072 88.316" enable-background="new 0 0 269.072 88.316"
	 xml:space="preserve">
<g>
	<g>
		<path d="M1.547,1.57v54.494c0,0.004,0,0.008,0,0.012s0,0.008,0,0.012v0.195h0.002c0.039,5.971,1.759,11.543,4.705,16.27
			c0.2-0.822,0.401-1.695,0.607-2.625c2.094-9.479,1.334-18.865,1.334-18.865h49.604c0,0-0.759,9.387,1.334,18.865
			c0.156,0.701,0.309,1.369,0.46,2.01c2.716-4.592,4.292-9.939,4.33-15.654h0.003V1.57H1.547z"/>
		<path fill="#FFFFFF" d="M6.458,73.826L5.83,72.817C2.74,67.861,1.087,62.145,1.049,56.286l-0.002-0.193V1.07h63.379l-0.01,55.712
			c-0.121,5.431-1.635,10.747-4.393,15.409l-0.631,1.067l-0.286-1.207c-0.152-0.643-0.305-1.313-0.461-2.017
			c-1.8-8.152-1.5-16.33-1.379-18.474H8.729C8.849,53.706,9.15,61.883,7.35,70.035c-0.207,0.934-0.409,1.811-0.61,2.636
			L6.458,73.826z M2.047,2.07v54.212c0.036,5.262,1.417,10.407,4.005,14.954c0.106-0.457,0.213-0.93,0.321-1.418
			c2.052-9.291,1.332-18.623,1.324-18.717l-0.043-0.54h50.688l-0.043,0.54c-0.008,0.094-0.728,9.426,1.324,18.718
			c0.057,0.254,0.113,0.504,0.168,0.749c2.347-4.379,3.6-9.292,3.633-14.289l0.003-0.438V2.07H2.047z"/>
	</g>
	<g>
		<path d="M25.852,66.955c0-2.836,2.851-6.082,7.235-6.082c4.384,0,7.235,3.246,7.235,6.082v19.381
			c1.145-0.287,2.267-0.639,3.359-1.047V65.835c0-1.713-2.865-7.885-10.595-7.885s-10.595,6.172-10.595,7.885v19.707
			c1.095,0.379,2.215,0.701,3.359,0.959V66.955z"/>
		<path fill="#FFFFFF" d="M26.352,87.126l-0.61-0.138c-1.137-0.256-2.285-0.583-3.413-0.974l-0.336-0.116V65.835
			c0-1.707,2.896-8.385,11.095-8.385s11.095,6.678,11.095,8.385v19.8l-0.325,0.122c-1.122,0.419-2.27,0.776-3.413,1.063
			l-0.622,0.155V66.955c0-2.641-2.766-5.582-6.735-5.582s-6.735,2.941-6.735,5.582V87.126z M22.992,85.184
			c0.782,0.261,1.572,0.49,2.359,0.686V66.955c0-3.179,3.108-6.582,7.735-6.582s7.735,3.403,7.735,6.582v18.732
			c0.791-0.216,1.581-0.466,2.359-0.747V65.835c0-1.503-2.635-7.385-10.095-7.385s-10.095,5.882-10.095,7.385V85.184z"/>
	</g>
	<g>
		<path d="M57.799,51.062H8.195c0,0,0.76,9.387-1.334,18.865c-0.206,0.93-0.407,1.803-0.607,2.625
			c3.736,5.996,9.454,10.631,16.238,12.99V65.835c0-1.713,2.865-7.885,10.595-7.885s10.595,6.172,10.595,7.885v19.453
			c6.703-2.514,12.311-7.268,15.911-13.352c-0.151-0.641-0.304-1.309-0.46-2.01C57.04,60.449,57.799,51.062,57.799,51.062z"/>
		<path fill="#FFFFFF" d="M22.992,86.246l-0.664-0.23C15.516,83.646,9.657,78.958,5.83,72.817l-0.111-0.179l0.05-0.204
			c0.199-0.819,0.4-1.688,0.605-2.615c2.054-9.297,1.332-18.623,1.324-18.717l-0.043-0.54h50.688l-0.043,0.54
			c-0.008,0.094-0.728,9.426,1.324,18.718c0.155,0.697,0.308,1.363,0.458,2.002l0.046,0.196l-0.103,0.174
			c-3.68,6.218-9.421,11.035-16.166,13.564l-0.676,0.254V65.835c0-1.503-2.635-7.385-10.095-7.385s-10.095,5.882-10.095,7.385
			V86.246z M6.79,72.465c3.582,5.661,8.955,10.027,15.203,12.365V65.835c0-1.707,2.896-8.385,11.095-8.385
			s11.095,6.678,11.095,8.385v18.723c6.177-2.487,11.435-6.972,14.878-12.703c-0.136-0.582-0.274-1.188-0.415-1.819
			c-1.8-8.152-1.5-16.33-1.379-18.474H8.729C8.849,53.706,9.15,61.883,7.35,70.035C7.16,70.892,6.974,71.7,6.79,72.465z"/>
	</g>
	<g>
		<path d="M33.087,87.261V60.873c-4.385,0-7.235,3.246-7.235,6.082v19.547c2.217,0.498,4.519,0.764,6.885,0.764
			C32.853,87.265,32.969,87.261,33.087,87.261z"/>
		<path fill="#FFFFFF" d="M32.736,87.765c-2.35,0-4.703-0.261-6.994-0.775l-0.391-0.088V66.955c0-3.179,3.108-6.582,7.735-6.582h0.5
			v27.389L32.736,87.765z M26.352,86.099c2.047,0.432,4.142,0.655,6.235,0.666V61.388c-3.7,0.234-6.235,3.038-6.235,5.566V86.099z"
			/>
	</g>
	<g>
		<path d="M33.087,60.873v26.389c2.492-0.027,4.915-0.348,7.235-0.926V66.955C40.322,64.119,37.471,60.873,33.087,60.873z"/>
		<path fill="#FFFFFF" d="M32.587,87.767V60.373h0.5c4.627,0,7.735,3.403,7.735,6.582v19.771l-0.379,0.095
			c-2.396,0.597-4.869,0.913-7.351,0.94L32.587,87.767z M33.587,61.388v25.363c2.104-0.058,4.197-0.329,6.235-0.81V66.955
			C39.822,64.426,37.287,61.623,33.587,61.388z"/>
	</g>
	<g>
		<rect x="37.759" y="69.939" fill="#FFFFFF" width="2.568" height="1"/>
	</g>
	<g>
		<rect x="37.759" y="79.597" fill="#FFFFFF" width="2.568" height="1"/>
	</g>
	<g>
		<line x1="25.848" y1="70.439" x2="28.58" y2="70.439"/>
		<rect x="25.848" y="69.939" fill="#FFFFFF" width="2.732" height="1"/>
	</g>
	<g>
		<rect x="25.848" y="79.597" fill="#FFFFFF" width="2.732" height="1"/>
	</g>
	<g>
		<rect x="7.673" y="50.521" fill="#1D1D1B" width="50.289" height="1"/>
	</g>
	<g>
		<path d="M33.087,4.519h-0.552v1.478h-1.779V7.15h1.779v2.704c-2.213,0.395-2.068,2.904-2.068,2.904l2.62-0.144l2.62,0.144
			c0,0,0.144-2.51-2.068-2.904V7.15h1.779V5.996h-1.779V4.519H33.087L33.087,4.519z"/>
		<path fill="#FFFFFF" d="M36.178,13.285l-3.118-0.171l-3.063,0.171l-0.028-0.498c-0.055-0.951,0.325-2.775,2.067-3.325V7.65h-1.779
			V5.496h1.779V4.019h2.104v1.478h1.779V7.65h-1.779v1.813c1.742,0.55,2.122,2.374,2.067,3.324L36.178,13.285z M33.06,12.116
			l2.12,0.114c-0.086-0.635-0.416-1.667-1.629-1.883l-0.412-0.073V6.65h1.779V6.496h-1.779V5.019h-0.104v1.478h-1.779V6.65h1.779
			v3.623l-0.412,0.073c-1.214,0.216-1.542,1.248-1.629,1.882L33.06,12.116z"/>
	</g>
	<g>
		<polygon points="10.034,14.753 12.518,14.753 12.518,17.912 14.328,17.912 14.328,14.753 16.702,14.753 16.702,17.912 
			18.234,17.912 18.234,14.753 20.701,14.753 20.701,17.912 22.323,17.912 22.323,14.753 24.684,14.753 24.684,20.974 
			23.891,21.315 10.99,21.315 10.034,20.974 10.034,14.753 		"/>
		<path fill="#FFFFFF" d="M23.994,21.815l-13.172-0.029l-1.288-0.46v-7.073h3.483v3.159h0.811v-3.159h3.374v3.159h0.532v-3.159
			h3.467v3.159h0.622v-3.159h3.36v7.05L23.994,21.815z M11.077,20.815h12.71l0.396-0.171v-5.392h-1.36v3.159h-2.622v-3.159h-1.467
			v3.159h-2.532v-3.159h-1.374v3.159h-2.811v-3.159h-1.483v5.369L11.077,20.815z"/>
	</g>
	<g>
		<polygon points="56.139,14.753 53.656,14.753 53.656,17.912 51.846,17.912 51.846,14.753 49.472,14.753 49.472,17.912 
			47.938,17.912 47.938,14.753 45.475,14.753 45.475,17.912 43.851,17.912 43.851,14.753 41.49,14.753 41.49,20.974 42.281,21.315 
			55.186,21.315 56.139,20.974 56.139,14.753 		"/>
		<path fill="#FFFFFF" d="M55.272,21.815l-13.189-0.041l-1.093-0.472v-7.049h3.36v3.159h0.624v-3.159h3.464v3.159h0.533v-3.159
			h3.374v3.159h0.811v-3.159h3.482v7.073L55.272,21.815z M42.385,20.815h12.714l0.54-0.194v-5.369h-1.482v3.159h-2.811v-3.159
			h-1.374v3.159h-2.533v-3.159h-1.464v3.159h-2.624v-3.159h-1.36v5.392L42.385,20.815z"/>
	</g>
	<g>
		<polygon points="10.99,21.315 23.874,21.315 23.874,48.683 10.99,48.683 10.99,21.315 		"/>
		<path fill="#FFFFFF" d="M24.374,49.183H10.49V20.815h13.884V49.183z M11.49,48.183h11.884V21.815H11.49V48.183z"/>
	</g>
	<g>
		<polygon points="55.186,21.315 42.301,21.315 42.301,48.683 55.186,48.683 55.186,21.315 		"/>
		<path fill="#FFFFFF" d="M55.686,49.183H41.801V20.815h13.885V49.183z M42.801,48.183h11.885V21.815H42.801V48.183z"/>
	</g>
	<g>
		<polygon points="20.982,11.044 18.643,11.044 17.473,13.07 16.305,11.044 13.966,11.044 15.136,9.021 13.966,6.995 16.305,6.995 
			17.473,4.97 18.643,6.995 20.982,6.995 19.811,9.021 20.982,11.044 		"/>
		<path fill="#FFFFFF" d="M17.472,14.071l-1.457-2.527h-2.917l1.459-2.523L13.1,6.495h2.916l1.457-2.526l1.459,2.526h2.918
			l-1.461,2.525l1.461,2.523h-2.918L17.472,14.071z M14.833,10.544h1.761l0.879,1.526l0.881-1.526h1.761l-0.882-1.523l0.882-1.525
			h-1.761L17.473,5.97l-0.879,1.525h-1.762l0.881,1.525L14.833,10.544z"/>
	</g>
	<g>
		<polygon points="45.193,11.044 47.531,11.044 48.701,13.07 49.869,11.044 52.207,11.044 51.039,9.021 52.207,6.995 49.869,6.995 
			48.701,4.97 47.531,6.995 45.193,6.995 46.361,9.021 45.193,11.044 		"/>
		<path fill="#FFFFFF" d="M48.702,14.071l-1.459-2.527h-2.915l1.457-2.523l-1.457-2.525h2.915l1.459-2.526l1.457,2.526h2.915
			l-1.457,2.525l1.457,2.523h-2.915L48.702,14.071z M46.059,10.544h1.761l0.881,1.526l0.879-1.526h1.761l-0.879-1.523l0.879-1.525
			H49.58L48.701,5.97L47.82,7.495h-1.761l0.879,1.525L46.059,10.544z"/>
	</g>
	<g>
		<path d="M33.087,12.182c-3.109,0-6.262,2.724-6.262,6.124c0.681,0,6.262,0,6.262,0s5.579,0,6.265,0
			C39.352,14.905,36.198,12.182,33.087,12.182L33.087,12.182z"/>
		<path fill="#FFFFFF" d="M39.852,18.806H26.325v-0.5c0-3.529,3.16-6.624,6.762-6.624c3.604,0,6.765,3.095,6.765,6.624V18.806z
			 M27.35,17.806h11.477c-0.294-2.965-3.162-5.124-5.74-5.124C30.51,12.682,27.644,14.841,27.35,17.806z"/>
	</g>
	<g>
		<polygon points="33.087,18.306 25.889,18.306 25.889,21.073 26.599,21.315 33.087,21.315 39.576,21.315 40.285,21.073 
			40.285,18.306 33.087,18.306 		"/>
		<path fill="#FFFFFF" d="M39.659,21.815l-13.222-0.027l-1.048-0.357v-3.625h15.396v3.625L39.659,21.815z M26.682,20.815h12.812
			l0.292-0.1v-1.91H26.389v1.91L26.682,20.815z"/>
	</g>
	<g>
		<polygon points="33.087,21.315 26.723,21.315 26.723,48.308 33.087,48.308 39.452,48.308 39.452,21.315 33.087,21.315 		"/>
		<path fill="#FFFFFF" d="M39.952,48.808H26.223V20.815h13.729V48.808z M27.223,47.808h11.729V21.815H27.223V47.808z"/>
	</g>
	<g>
		<polygon points="33.087,44.001 31.091,44.001 31.091,47.707 27.386,47.707 27.386,44.001 23.317,44.001 23.317,47.707 
			19.922,47.707 19.922,44.001 15.982,44.001 15.982,47.707 12.615,47.707 12.615,44.001 8.002,44.001 8.002,51.021 9.117,51.289 
			33.087,51.289 57.057,51.289 57.604,51.021 57.604,44.001 53.561,44.001 53.561,47.707 50.192,47.707 50.192,44.001 
			46.252,44.001 46.252,47.707 42.857,47.707 42.857,44.001 38.787,44.001 38.787,47.707 35.082,47.707 35.082,44.001 
			33.087,44.001 		"/>
		<path fill="#FFFFFF" d="M57.172,51.789L9,51.775l-1.499-0.359v-7.915h5.613v3.706h2.367v-3.706h4.939v3.706h2.396v-3.706h5.068
			v3.706h2.705v-3.706h4.991v3.706h2.705v-3.706h5.07v3.706h2.395v-3.706h4.94v3.706h2.368v-3.706h5.043v7.832L57.172,51.789z
			 M9.176,50.789h47.765l0.163-0.079v-6.208h-3.043v3.706h-4.368v-3.706h-2.94v3.706h-4.395v-3.706h-3.07v3.706h-4.705v-3.706
			h-2.991v3.706h-4.705v-3.706h-3.068v3.706h-4.396v-3.706h-2.939v3.706h-4.367v-3.706H8.502v6.125L9.176,50.789z"/>
	</g>
	<g>
		<rect x="10.688" y="20.96" fill="#1D1D1B" width="13.497" height="1"/>
	</g>
	<g>
		<rect x="42.055" y="20.96" fill="#1D1D1B" width="13.497" height="1"/>
	</g>
	<g>
		<rect x="26.4" y="20.96" fill="#1D1D1B" width="13.328" height="1"/>
	</g>
</g>
<g id="Textildruck_Hamburg">
	<path fill="#FFFFFF" d="M81.257,38.908V16.873h-7.87v-4.486h21.076v4.486h-7.852v22.035H81.257z"/>
	<path fill="#FFFFFF" d="M106.258,32.793l5.065,0.85c-0.651,1.857-1.68,3.272-3.084,4.243c-1.405,0.971-3.163,1.456-5.273,1.456
		c-3.342,0-5.813-1.091-7.418-3.274c-1.266-1.749-1.899-3.956-1.899-6.621c0-3.184,0.832-5.678,2.497-7.48
		c1.664-1.803,3.769-2.705,6.313-2.705c2.858,0,5.113,0.944,6.766,2.831c1.652,1.888,2.442,4.779,2.37,8.674H98.858
		c0.036,1.508,0.446,2.681,1.23,3.519s1.761,1.257,2.931,1.257c0.796,0,1.466-0.217,2.008-0.651
		C105.57,34.458,105.98,33.758,106.258,32.793z M106.547,27.655c-0.036-1.471-0.416-2.59-1.14-3.356
		c-0.724-0.766-1.604-1.149-2.641-1.149c-1.11,0-2.026,0.404-2.75,1.212s-1.079,1.906-1.067,3.292H106.547z"/>
	<path fill="#FFFFFF" d="M113.295,38.908l6.929-9.896l-6.639-9.317h6.205l3.401,5.282l3.581-5.282h5.971l-6.513,9.1l7.109,10.113
		h-6.241l-3.907-5.952l-3.944,5.952H113.295z"/>
	<path fill="#FFFFFF" d="M145.153,19.695v4.052h-3.474v7.743c0,1.568,0.033,2.482,0.1,2.741s0.217,0.473,0.452,0.642
		s0.521,0.253,0.859,0.253c0.471,0,1.151-0.163,2.044-0.489l0.435,3.944c-1.183,0.507-2.521,0.76-4.017,0.76
		c-0.916,0-1.742-0.154-2.479-0.461c-0.735-0.307-1.275-0.706-1.619-1.194s-0.582-1.149-0.714-1.981
		c-0.108-0.591-0.163-1.785-0.163-3.582v-8.376h-2.334v-4.052h2.334v-3.817l5.102-2.967v6.784H145.153z"/>
	<path fill="#FFFFFF" d="M148.681,17.09v-4.704h5.084v4.704H148.681z M148.681,38.908V19.695h5.084v19.212H148.681z"/>
	<path fill="#FFFFFF" d="M158.975,38.908V12.387h5.084v26.521H158.975z"/>
	<path fill="#FFFFFF" d="M186.89,38.908h-4.722v-2.822c-0.784,1.098-1.71,1.915-2.777,2.451c-1.067,0.537-2.144,0.805-3.229,0.805
		c-2.207,0-4.098-0.889-5.671-2.668c-1.574-1.779-2.361-4.26-2.361-7.444c0-3.256,0.766-5.731,2.298-7.426
		c1.531-1.694,3.467-2.542,5.807-2.542c2.146,0,4.004,0.893,5.572,2.677v-9.552h5.084V38.908z M173.321,28.885
		c0,2.051,0.283,3.534,0.85,4.451c0.82,1.327,1.966,1.99,3.438,1.99c1.17,0,2.165-0.498,2.985-1.493
		c0.82-0.995,1.23-2.481,1.23-4.459c0-2.208-0.398-3.796-1.194-4.767s-1.815-1.457-3.058-1.457c-1.206,0-2.216,0.479-3.03,1.438
		C173.729,25.547,173.321,26.98,173.321,28.885z"/>
	<path fill="#FFFFFF" d="M196.767,38.908h-5.083V19.695h4.722v2.731c0.808-1.29,1.534-2.141,2.18-2.551
		c0.646-0.41,1.378-0.615,2.198-0.615c1.158,0,2.273,0.319,3.347,0.958l-1.574,4.433c-0.856-0.555-1.652-0.833-2.388-0.833
		c-0.712,0-1.314,0.196-1.809,0.588c-0.495,0.392-0.884,1.101-1.167,2.126c-0.284,1.025-0.426,3.172-0.426,6.44V38.908z"/>
	<path fill="#FFFFFF" d="M218.964,38.908v-2.876c-0.699,1.025-1.619,1.833-2.759,2.424s-2.343,0.886-3.609,0.886
		c-1.29,0-2.448-0.283-3.473-0.85c-1.025-0.567-1.768-1.363-2.226-2.388c-0.459-1.025-0.688-2.442-0.688-4.251V19.695h5.084v8.828
		c0,2.702,0.093,4.357,0.28,4.966c0.187,0.609,0.527,1.092,1.021,1.447c0.495,0.356,1.122,0.534,1.882,0.534
		c0.868,0,1.646-0.238,2.334-0.714c0.688-0.476,1.157-1.067,1.411-1.773c0.253-0.706,0.38-2.433,0.38-5.183v-8.104h5.083v19.212
		H218.964z"/>
	<path fill="#FFFFFF" d="M245.702,25.376l-5.011,0.904c-0.169-1.001-0.552-1.755-1.148-2.261c-0.598-0.507-1.372-0.76-2.325-0.76
		c-1.267,0-2.276,0.437-3.03,1.312s-1.131,2.337-1.131,4.387c0,2.28,0.383,3.89,1.149,4.831c0.766,0.94,1.794,1.411,3.084,1.411
		c0.965,0,1.755-0.274,2.37-0.823s1.049-1.493,1.303-2.831l4.993,0.85c-0.519,2.292-1.514,4.022-2.985,5.192
		c-1.472,1.17-3.443,1.755-5.916,1.755c-2.81,0-5.05-0.886-6.721-2.659c-1.67-1.773-2.505-4.227-2.505-7.363
		c0-3.171,0.838-5.641,2.515-7.408c1.676-1.767,3.943-2.65,6.802-2.65c2.34,0,4.2,0.503,5.581,1.51
		C244.107,21.779,245.1,23.313,245.702,25.376z"/>
	<path fill="#FFFFFF" d="M249.375,38.908V12.387h5.083v14.075l5.952-6.766h6.26l-6.567,7.019l7.038,12.193h-5.482l-4.83-8.629
		l-2.37,2.479v6.151H249.375z"/>
	<path fill="#FFFFFF" d="M75.305,72.908V46.386h5.354v10.438h10.493V46.386h5.354v26.521h-5.354V61.312H80.659v11.596H75.305z"/>
	<path fill="#FFFFFF" d="M105.806,59.556l-4.612-0.832c0.518-1.857,1.411-3.232,2.677-4.125c1.267-0.892,3.148-1.338,5.645-1.338
		c2.268,0,3.956,0.269,5.065,0.805c1.109,0.537,1.891,1.219,2.343,2.045s0.679,2.342,0.679,4.549l-0.055,5.935
		c0,1.688,0.082,2.934,0.244,3.735c0.163,0.803,0.468,1.662,0.914,2.578h-5.029c-0.133-0.338-0.296-0.838-0.488-1.502
		c-0.085-0.301-0.146-0.5-0.182-0.597c-0.868,0.845-1.797,1.478-2.785,1.899c-0.989,0.422-2.045,0.633-3.166,0.633
		c-1.979,0-3.537-0.536-4.677-1.609s-1.71-2.43-1.71-4.07c0-1.086,0.26-2.054,0.778-2.904c0.519-0.85,1.245-1.501,2.18-1.953
		c0.935-0.453,2.282-0.848,4.044-1.186c2.375-0.445,4.021-0.861,4.938-1.248v-0.506c0-0.978-0.241-1.674-0.724-2.09
		s-1.394-0.625-2.731-0.625c-0.905,0-1.61,0.179-2.117,0.534C106.529,58.041,106.119,58.664,105.806,59.556z M112.608,63.681
		c-0.651,0.217-1.683,0.477-3.094,0.778s-2.334,0.597-2.768,0.886c-0.664,0.471-0.995,1.068-0.995,1.791
		c0,0.713,0.265,1.327,0.796,1.846c0.53,0.519,1.206,0.777,2.026,0.777c0.916,0,1.791-0.301,2.623-0.904
		c0.615-0.458,1.019-1.019,1.212-1.682c0.133-0.435,0.199-1.261,0.199-2.479V63.681z"/>
	<path fill="#FFFFFF" d="M122.232,53.695h4.686v2.623c1.677-2.037,3.673-3.057,5.988-3.057c1.23,0,2.298,0.253,3.202,0.76
		c0.904,0.506,1.646,1.272,2.225,2.297c0.845-1.024,1.755-1.791,2.732-2.297c0.977-0.507,2.02-0.76,3.13-0.76
		c1.411,0,2.604,0.287,3.582,0.859c0.977,0.572,1.706,1.414,2.188,2.523c0.35,0.82,0.524,2.146,0.524,3.98v12.283h-5.083v-10.98
		c0-1.906-0.175-3.137-0.524-3.691c-0.471-0.724-1.194-1.086-2.171-1.086c-0.712,0-1.382,0.218-2.009,0.652
		c-0.627,0.434-1.079,1.07-1.356,1.908s-0.416,2.162-0.416,3.971v9.227h-5.084V62.378c0-1.869-0.09-3.075-0.271-3.617
		c-0.181-0.543-0.461-0.947-0.841-1.213s-0.896-0.398-1.547-0.398c-0.784,0-1.489,0.212-2.116,0.634
		c-0.628,0.423-1.077,1.031-1.348,1.827c-0.271,0.796-0.407,2.117-0.407,3.962v9.335h-5.084V53.695z"/>
	<path fill="#FFFFFF" d="M155.339,72.908V46.386h5.083v9.553c1.568-1.785,3.426-2.678,5.572-2.678c2.34,0,4.275,0.848,5.808,2.541
		c1.531,1.695,2.297,4.129,2.297,7.301c0,3.28-0.78,5.807-2.343,7.58c-1.562,1.772-3.458,2.658-5.689,2.658
		c-1.098,0-2.18-0.273-3.247-0.822s-1.987-1.359-2.759-2.434v2.822H155.339z M160.386,62.885c0,1.99,0.313,3.462,0.941,4.414
		c0.88,1.351,2.05,2.026,3.51,2.026c1.121,0,2.077-0.479,2.867-1.438c0.789-0.959,1.185-2.471,1.185-4.532
		c0-2.195-0.397-3.778-1.193-4.749c-0.797-0.971-1.815-1.457-3.058-1.457c-1.219,0-2.231,0.475-3.039,1.421
		C160.79,59.517,160.386,60.957,160.386,62.885z"/>
	<path fill="#FFFFFF" d="M190.833,72.908v-2.877c-0.699,1.025-1.619,1.834-2.759,2.425s-2.343,0.886-3.609,0.886
		c-1.29,0-2.448-0.283-3.473-0.85c-1.025-0.566-1.768-1.363-2.226-2.389c-0.459-1.024-0.688-2.441-0.688-4.251V53.695h5.084v8.828
		c0,2.702,0.093,4.357,0.28,4.967c0.187,0.609,0.527,1.092,1.021,1.447c0.495,0.355,1.122,0.533,1.882,0.533
		c0.868,0,1.646-0.238,2.334-0.715c0.688-0.476,1.157-1.066,1.411-1.772c0.253-0.706,0.38-2.433,0.38-5.183v-8.105h5.083v19.213
		H190.833z"/>
	<path fill="#FFFFFF" d="M205.685,72.908h-5.083V53.695h4.722v2.732c0.808-1.291,1.534-2.141,2.18-2.551s1.378-0.615,2.198-0.615
		c1.158,0,2.273,0.319,3.347,0.959l-1.574,4.432c-0.856-0.555-1.652-0.832-2.388-0.832c-0.712,0-1.314,0.196-1.809,0.588
		c-0.495,0.393-0.884,1.102-1.167,2.126c-0.284,1.024-0.426,3.172-0.426,6.44V72.908z"/>
	<path fill="#FFFFFF" d="M214.768,74.174l5.807,0.705c0.097,0.675,0.319,1.14,0.67,1.394c0.481,0.361,1.241,0.543,2.279,0.543
		c1.326,0,2.321-0.199,2.984-0.598c0.446-0.266,0.784-0.693,1.014-1.284c0.156-0.423,0.235-1.2,0.235-2.334v-2.804
		c-1.521,2.074-3.438,3.111-5.753,3.111c-2.581,0-4.626-1.092-6.133-3.274c-1.183-1.725-1.773-3.872-1.773-6.44
		c0-3.221,0.774-5.681,2.325-7.381c1.549-1.701,3.476-2.551,5.779-2.551c2.376,0,4.336,1.043,5.88,3.129v-2.695h4.758v17.241
		c0,2.267-0.188,3.962-0.561,5.083c-0.374,1.122-0.898,2.002-1.574,2.642s-1.577,1.14-2.704,1.501
		c-1.128,0.362-2.555,0.543-4.279,0.543c-3.256,0-5.565-0.558-6.929-1.674c-1.362-1.115-2.044-2.529-2.044-4.242
		C214.749,74.621,214.755,74.416,214.768,74.174z M219.308,62.904c0,2.038,0.396,3.53,1.186,4.477
		c0.789,0.947,1.764,1.421,2.922,1.421c1.241,0,2.291-0.485,3.147-1.456s1.284-2.409,1.284-4.314c0-1.99-0.41-3.468-1.23-4.434
		c-0.82-0.964-1.857-1.447-3.111-1.447c-1.218,0-2.223,0.475-3.012,1.421C219.703,59.517,219.308,60.962,219.308,62.904z"/>
</g>
</svg>
