<?xml version="1.0" encoding="utf-8"?>
<!-- Generator: Adobe Illustrator 16.0.0, SVG Export Plug-In . SVG Version: 6.00 Build 0)  -->
<!DOCTYPE svg PUBLIC "-//W3C//DTD SVG 1.1//EN" "http://www.w3.org/Graphics/SVG/1.1/DTD/svg11.dtd">
<svg version="1.1" id="Ebene_1" xmlns="http://www.w3.org/2000/svg" xmlns:xlink="http://www.w3.org/1999/xlink" x="0px" y="0px"
	 width="114.691px" height="114.069px" viewBox="0 0 114.691 114.069" enable-background="new 0 0 114.691 114.069"
	 xml:space="preserve">
<g>
	<line fill="none" stroke="#FFFFFF" stroke-miterlimit="10" x1="58.022" y1="86.678" x2="48.713" y2="84.504"/>
	<line fill="none" stroke="#FFFFFF" stroke-miterlimit="10" x1="57.95" y1="81.33" x2="57.95" y2="71.602"/>
	<path fill="none" stroke="#FFFFFF" stroke-miterlimit="10" d="M50.326,74.965"/>
	<path fill="none" stroke="#FFFFFF" stroke-miterlimit="10" d="M57.88,77.638"/>
	<path fill="none" stroke="#FFFFFF" stroke-miterlimit="10" d="M48.797,71.273"/>
	<path fill="none" stroke="#FFFFFF" stroke-miterlimit="10" d="M50.326,74.965"/>
	<path fill="none" stroke="#FFFFFF" stroke-miterlimit="10" d="M57.963,75.304"/>
	<path fill="none" stroke="#FFFFFF" stroke-miterlimit="10" d="M48.797,71.273"/>
	<line fill="none" stroke="#FFFFFF" stroke-miterlimit="10" x1="49.052" y1="71.273" x2="57.963" y2="71.485"/>
	<line fill="none" stroke="#FFFFFF" stroke-miterlimit="10" x1="48.797" y1="84.514" x2="33.775" y2="76.025"/>
	<line fill="none" stroke="#FFFFFF" stroke-miterlimit="10" x1="33.775" y1="75.813" x2="48.797" y2="71.273"/>
	<line fill="none" stroke="#FFFFFF" stroke-miterlimit="10" x1="33.848" y1="76.084" x2="27.49" y2="61.289"/>
	<line fill="none" stroke="#FFFFFF" stroke-miterlimit="10" x1="27.538" y1="61.386" x2="37.171" y2="57.694"/>
	<line fill="none" stroke="#FFFFFF" stroke-miterlimit="10" x1="37.171" y1="57.694" x2="42.432" y2="65.119"/>
	<line fill="none" stroke="#FFFFFF" stroke-miterlimit="10" x1="42.432" y1="65.119" x2="33.775" y2="75.813"/>
	<line fill="none" stroke="#FFFFFF" stroke-miterlimit="10" x1="42.432" y1="65.119" x2="48.797" y2="71.273"/>
	<line fill="none" stroke="#FFFFFF" stroke-miterlimit="10" x1="42.415" y1="65.008" x2="50.326" y2="53.875"/>
	<line fill="none" stroke="#FFFFFF" stroke-miterlimit="10" x1="50.665" y1="47.934" x2="47.822" y2="45.006"/>
	<line fill="none" stroke="#FFFFFF" stroke-miterlimit="10" x1="47.822" y1="45.006" x2="44.172" y2="47.042"/>
	<line fill="none" stroke="#FFFFFF" stroke-miterlimit="10" x1="44.172" y1="47.042" x2="37.171" y2="57.694"/>
	<line fill="none" stroke="#FFFFFF" stroke-miterlimit="10" x1="27.538" y1="61.393" x2="27.962" y2="47.115"/>
	<line fill="none" stroke="#FFFFFF" stroke-miterlimit="10" x1="27.949" y1="47.179" x2="37.27" y2="57.799"/>
	<line fill="none" stroke="#FFFFFF" stroke-miterlimit="10" x1="27.958" y1="47.188" x2="30.656" y2="41.696"/>
	<line fill="none" stroke="#FFFFFF" stroke-miterlimit="10" x1="30.656" y1="41.696" x2="44.172" y2="47.042"/>
	<line fill="none" stroke="#FFFFFF" stroke-miterlimit="10" x1="30.656" y1="41.696" x2="36.491" y2="30.238"/>
	<line fill="none" stroke="#FFFFFF" stroke-miterlimit="10" x1="36.44" y1="30.34" x2="44.172" y2="23.831"/>
	<line fill="none" stroke="#FFFFFF" stroke-miterlimit="10" x1="44.109" y1="23.871" x2="57.991" y2="20.025"/>
	<line fill="none" stroke="#FFFFFF" stroke-miterlimit="10" x1="38.868" y1="21.37" x2="31.781" y2="22.893"/>
	<line fill="none" stroke="#FFFFFF" stroke-miterlimit="10" x1="31.828" y1="22.824" x2="28.142" y2="27.725"/>
	<line fill="none" stroke="#FFFFFF" stroke-miterlimit="10" x1="28.216" y1="27.607" x2="27.029" y2="34.524"/>
	<line fill="none" stroke="#FFFFFF" stroke-miterlimit="10" x1="27.029" y1="34.457" x2="30.656" y2="41.84"/>
	<line fill="none" stroke="#FFFFFF" stroke-miterlimit="10" x1="53.889" y1="55.827" x2="50.326" y2="53.875"/>
	<line fill="none" stroke="#FFFFFF" stroke-miterlimit="10" x1="50.665" y1="47.934" x2="53.889" y2="52.984"/>
	<line fill="none" stroke="#FFFFFF" stroke-miterlimit="10" x1="53.889" y1="52.984" x2="57.963" y2="52.984"/>
	<line fill="none" stroke="#FFFFFF" stroke-miterlimit="10" x1="47.822" y1="45.006" x2="44.172" y2="23.831"/>
	<line fill="none" stroke="#FFFFFF" stroke-miterlimit="10" x1="36.345" y1="30.527" x2="45.464" y2="31.707"/>
	<line fill="none" stroke="#FFFFFF" stroke-miterlimit="10" x1="31.247" y1="41.93" x2="45.464" y2="31.707"/>
	<line fill="none" stroke="#FFFFFF" stroke-miterlimit="10" x1="43.958" y1="47.368" x2="45.464" y2="49.928"/>
	<line fill="none" stroke="#FFFFFF" stroke-miterlimit="10" x1="45.464" y1="49.928" x2="50.665" y2="49.928"/>
	<line fill="none" stroke="#FFFFFF" stroke-miterlimit="10" x1="50.326" y1="53.875" x2="50.665" y2="47.934"/>
	<line fill="none" stroke="#FFFFFF" stroke-miterlimit="10" x1="45.464" y1="31.707" x2="54.029" y2="36.818"/>
	<line fill="none" stroke="#FFFFFF" stroke-miterlimit="10" x1="54.029" y1="36.818" x2="57.963" y2="36.818"/>
	<line fill="none" stroke="#FFFFFF" stroke-miterlimit="10" x1="47.822" y1="45.006" x2="54.029" y2="36.818"/>
	<line fill="none" stroke="#FFFFFF" stroke-miterlimit="10" x1="38.796" y1="21.336" x2="44.1" y2="23.903"/>
	<line fill="none" stroke="#FFFFFF" stroke-miterlimit="10" x1="53.889" y1="52.984" x2="53.889" y2="55.827"/>
	<line fill="none" stroke="#FFFFFF" stroke-miterlimit="10" x1="43.958" y1="53.153" x2="50.326" y2="53.875"/>
	<line fill="none" stroke="#FFFFFF" stroke-miterlimit="10" x1="44.058" y1="53.197" x2="45.363" y2="49.885"/>
	<line fill="none" stroke="#FFFFFF" stroke-miterlimit="10" x1="57.88" y1="86.695" x2="67.187" y2="84.522"/>
	<path fill="none" stroke="#FFFFFF" stroke-miterlimit="10" d="M65.576,74.984"/>
	<path fill="none" stroke="#FFFFFF" stroke-miterlimit="10" d="M58.022,77.657"/>
	<path fill="none" stroke="#FFFFFF" stroke-miterlimit="10" d="M67.104,71.293"/>
	<path fill="none" stroke="#FFFFFF" stroke-miterlimit="10" d="M65.576,74.984"/>
	<path fill="none" stroke="#FFFFFF" stroke-miterlimit="10" d="M57.936,75.324"/>
	<path fill="none" stroke="#FFFFFF" stroke-miterlimit="10" d="M67.104,71.293"/>
	<line fill="none" stroke="#FFFFFF" stroke-miterlimit="10" x1="66.851" y1="71.293" x2="57.936" y2="71.505"/>
	<line fill="none" stroke="#FFFFFF" stroke-miterlimit="10" x1="67.104" y1="84.531" x2="82.126" y2="76.045"/>
	<line fill="none" stroke="#FFFFFF" stroke-miterlimit="10" x1="82.126" y1="75.833" x2="67.104" y2="71.293"/>
	<line fill="none" stroke="#FFFFFF" stroke-miterlimit="10" x1="82.055" y1="76.103" x2="88.41" y2="61.309"/>
	<line fill="none" stroke="#FFFFFF" stroke-miterlimit="10" x1="88.362" y1="61.405" x2="78.729" y2="57.714"/>
	<line fill="none" stroke="#FFFFFF" stroke-miterlimit="10" x1="78.729" y1="57.714" x2="73.468" y2="65.14"/>
	<line fill="none" stroke="#FFFFFF" stroke-miterlimit="10" x1="73.468" y1="65.14" x2="82.126" y2="75.833"/>
	<line fill="none" stroke="#FFFFFF" stroke-miterlimit="10" x1="73.468" y1="65.14" x2="67.104" y2="71.293"/>
	<line fill="none" stroke="#FFFFFF" stroke-miterlimit="10" x1="73.486" y1="65.027" x2="65.576" y2="53.894"/>
	<line fill="none" stroke="#FFFFFF" stroke-miterlimit="10" x1="65.236" y1="47.953" x2="68.079" y2="45.025"/>
	<line fill="none" stroke="#FFFFFF" stroke-miterlimit="10" x1="68.079" y1="45.025" x2="71.729" y2="47.063"/>
	<line fill="none" stroke="#FFFFFF" stroke-miterlimit="10" x1="71.729" y1="47.063" x2="78.729" y2="57.714"/>
	<line fill="none" stroke="#FFFFFF" stroke-miterlimit="10" x1="88.362" y1="61.412" x2="87.939" y2="47.134"/>
	<line fill="none" stroke="#FFFFFF" stroke-miterlimit="10" x1="87.953" y1="47.198" x2="78.63" y2="57.818"/>
	<line fill="none" stroke="#FFFFFF" stroke-miterlimit="10" x1="87.941" y1="47.208" x2="85.245" y2="41.716"/>
	<line fill="none" stroke="#FFFFFF" stroke-miterlimit="10" x1="85.245" y1="41.716" x2="71.729" y2="47.063"/>
	<line fill="none" stroke="#FFFFFF" stroke-miterlimit="10" x1="85.245" y1="41.716" x2="79.407" y2="30.258"/>
	<line fill="none" stroke="#FFFFFF" stroke-miterlimit="10" x1="79.461" y1="30.359" x2="71.729" y2="23.851"/>
	<line fill="none" stroke="#FFFFFF" stroke-miterlimit="10" x1="71.791" y1="23.89" x2="57.907" y2="20.044"/>
	<line fill="none" stroke="#FFFFFF" stroke-miterlimit="10" x1="77.033" y1="21.39" x2="84.12" y2="22.912"/>
	<line fill="none" stroke="#FFFFFF" stroke-miterlimit="10" x1="84.074" y1="22.842" x2="87.758" y2="27.745"/>
	<line fill="none" stroke="#FFFFFF" stroke-miterlimit="10" x1="87.685" y1="27.627" x2="88.872" y2="34.544"/>
	<line fill="none" stroke="#FFFFFF" stroke-miterlimit="10" x1="88.872" y1="34.476" x2="85.245" y2="41.86"/>
	<line fill="none" stroke="#FFFFFF" stroke-miterlimit="10" x1="62.012" y1="55.847" x2="65.576" y2="53.894"/>
	<line fill="none" stroke="#FFFFFF" stroke-miterlimit="10" x1="65.236" y1="47.953" x2="62.012" y2="53.003"/>
	<line fill="none" stroke="#FFFFFF" stroke-miterlimit="10" x1="62.012" y1="53.003" x2="57.936" y2="53.003"/>
	<line fill="none" stroke="#FFFFFF" stroke-miterlimit="10" x1="68.079" y1="45.025" x2="71.729" y2="23.851"/>
	<line fill="none" stroke="#FFFFFF" stroke-miterlimit="10" x1="79.558" y1="30.546" x2="70.438" y2="31.726"/>
	<line fill="none" stroke="#FFFFFF" stroke-miterlimit="10" x1="84.654" y1="41.949" x2="70.438" y2="31.726"/>
	<line fill="none" stroke="#FFFFFF" stroke-miterlimit="10" x1="71.942" y1="47.387" x2="70.438" y2="49.948"/>
	<line fill="none" stroke="#FFFFFF" stroke-miterlimit="10" x1="70.438" y1="49.948" x2="65.236" y2="49.948"/>
	<line fill="none" stroke="#FFFFFF" stroke-miterlimit="10" x1="65.576" y1="53.894" x2="65.236" y2="47.953"/>
	<line fill="none" stroke="#FFFFFF" stroke-miterlimit="10" x1="70.438" y1="31.726" x2="61.872" y2="36.838"/>
	<line fill="none" stroke="#FFFFFF" stroke-miterlimit="10" x1="61.872" y1="36.838" x2="57.936" y2="36.838"/>
	<line fill="none" stroke="#FFFFFF" stroke-miterlimit="10" x1="68.079" y1="45.025" x2="61.872" y2="36.838"/>
	<line fill="none" stroke="#FFFFFF" stroke-miterlimit="10" x1="77.105" y1="21.356" x2="71.801" y2="23.923"/>
	<line fill="none" stroke="#FFFFFF" stroke-miterlimit="10" x1="62.012" y1="53.003" x2="62.012" y2="55.847"/>
	<line fill="none" stroke="#FFFFFF" stroke-miterlimit="10" x1="71.942" y1="53.172" x2="65.576" y2="53.894"/>
	<line fill="none" stroke="#FFFFFF" stroke-miterlimit="10" x1="71.842" y1="53.216" x2="70.538" y2="49.905"/>
	<line fill="none" stroke="#FFFFFF" stroke-miterlimit="10" x1="57.95" y1="81.33" x2="48.797" y2="84.514"/>
	<line fill="none" stroke="#FFFFFF" stroke-miterlimit="10" x1="57.95" y1="81.33" x2="67.187" y2="84.522"/>
	<line fill="none" stroke="#FFFFFF" stroke-miterlimit="10" x1="48.797" y1="71.273" x2="57.963" y2="73.864"/>
	<line fill="none" stroke="#FFFFFF" stroke-miterlimit="10" x1="57.963" y1="73.864" x2="67.104" y2="71.293"/>
	<line fill="none" stroke="#FFFFFF" stroke-miterlimit="10" x1="48.797" y1="71.273" x2="48.797" y2="84.514"/>
	<line fill="none" stroke="#FFFFFF" stroke-miterlimit="10" x1="67.104" y1="71.293" x2="67.187" y2="84.522"/>
	<line fill="none" stroke="#FFFFFF" stroke-miterlimit="10" x1="53.889" y1="55.827" x2="48.797" y2="71.273"/>
	<line fill="none" stroke="#FFFFFF" stroke-miterlimit="10" x1="62.012" y1="55.847" x2="67.104" y2="71.293"/>
	<line fill="none" stroke="#FFFFFF" stroke-miterlimit="10" x1="57.963" y1="71.485" x2="50.988" y2="64.629"/>
	<line fill="none" stroke="#FFFFFF" stroke-miterlimit="10" x1="57.963" y1="71.485" x2="64.862" y2="64.586"/>
	<line fill="none" stroke="#FFFFFF" stroke-miterlimit="10" x1="50.988" y1="64.629" x2="64.862" y2="64.629"/>
	<g>
		<line fill="none" stroke="#FFFFFF" stroke-miterlimit="10" x1="78.684" y1="87.14" x2="99.388" y2="76.332"/>
		<line fill="none" stroke="#FFFFFF" stroke-miterlimit="10" x1="81.051" y1="86.186" x2="84.706" y2="87.563"/>
		<line fill="none" stroke="#FFFFFF" stroke-miterlimit="10" x1="84.706" y1="87.563" x2="91.001" y2="87.418"/>
		<line fill="none" stroke="#FFFFFF" stroke-miterlimit="10" x1="84.706" y1="87.563" x2="85.031" y2="83.826"/>
		<line fill="none" stroke="#FFFFFF" stroke-miterlimit="10" x1="91.001" y1="87.418" x2="94.732" y2="85.471"/>
		<line fill="none" stroke="#FFFFFF" stroke-miterlimit="10" x1="94.44" y1="85.623" x2="98.125" y2="80.809"/>
		<line fill="none" stroke="#FFFFFF" stroke-miterlimit="10" x1="98.125" y1="80.809" x2="99.388" y2="76.332"/>
		<line fill="none" stroke="#FFFFFF" stroke-miterlimit="10" x1="98.125" y1="80.809" x2="95.941" y2="78.131"/>
		<line fill="none" stroke="#FFFFFF" stroke-miterlimit="10" x1="91.001" y1="87.418" x2="90.91" y2="80.757"/>
		<line fill="none" stroke="#FFFFFF" stroke-miterlimit="10" x1="94.732" y1="85.471" x2="90.91" y2="80.757"/>
		<line fill="none" stroke="#FFFFFF" stroke-miterlimit="10" x1="85.281" y1="83.978" x2="90.847" y2="87.127"/>
		<line fill="none" stroke="#FFFFFF" stroke-miterlimit="10" x1="94.581" y1="85.178" x2="95.941" y2="78.131"/>
		<line fill="none" stroke="#FFFFFF" stroke-miterlimit="10" x1="78.732" y1="87.095" x2="99.439" y2="76.287"/>
		<line fill="none" stroke="#FFFFFF" stroke-miterlimit="10" x1="80.868" y1="85.698" x2="81.83" y2="81.912"/>
		<line fill="none" stroke="#FFFFFF" stroke-miterlimit="10" x1="81.83" y1="81.912" x2="85.548" y2="76.83"/>
		<line fill="none" stroke="#FFFFFF" stroke-miterlimit="10" x1="81.83" y1="81.912" x2="85.08" y2="83.782"/>
		<line fill="none" stroke="#FFFFFF" stroke-miterlimit="10" x1="85.548" y1="76.83" x2="89.279" y2="74.882"/>
		<line fill="none" stroke="#FFFFFF" stroke-miterlimit="10" x1="88.988" y1="75.035" x2="95.041" y2="74.766"/>
		<line fill="none" stroke="#FFFFFF" stroke-miterlimit="10" x1="95.041" y1="74.766" x2="99.439" y2="76.287"/>
		<line fill="none" stroke="#FFFFFF" stroke-miterlimit="10" x1="95.041" y1="74.766" x2="95.991" y2="78.086"/>
		<line fill="none" stroke="#FFFFFF" stroke-miterlimit="10" x1="85.548" y1="76.83" x2="90.961" y2="80.713"/>
		<line fill="none" stroke="#FFFFFF" stroke-miterlimit="10" x1="89.279" y1="74.882" x2="90.961" y2="80.713"/>
		<line fill="none" stroke="#FFFFFF" stroke-miterlimit="10" x1="85.1" y1="83.49" x2="85.699" y2="77.123"/>
		<line fill="none" stroke="#FFFFFF" stroke-miterlimit="10" x1="89.433" y1="75.174" x2="95.991" y2="78.086"/>
	</g>
	<g>
		<line fill="none" stroke="#FFFFFF" stroke-miterlimit="10" x1="36.855" y1="87.14" x2="16.15" y2="76.332"/>
		<line fill="none" stroke="#FFFFFF" stroke-miterlimit="10" x1="34.487" y1="86.186" x2="30.834" y2="87.563"/>
		<line fill="none" stroke="#FFFFFF" stroke-miterlimit="10" x1="30.834" y1="87.563" x2="24.539" y2="87.418"/>
		<line fill="none" stroke="#FFFFFF" stroke-miterlimit="10" x1="30.834" y1="87.563" x2="30.509" y2="83.826"/>
		<line fill="none" stroke="#FFFFFF" stroke-miterlimit="10" x1="24.539" y1="87.418" x2="20.806" y2="85.471"/>
		<line fill="none" stroke="#FFFFFF" stroke-miterlimit="10" x1="21.099" y1="85.623" x2="17.415" y2="80.809"/>
		<line fill="none" stroke="#FFFFFF" stroke-miterlimit="10" x1="17.415" y1="80.809" x2="16.15" y2="76.332"/>
		<line fill="none" stroke="#FFFFFF" stroke-miterlimit="10" x1="17.415" y1="80.809" x2="19.597" y2="78.131"/>
		<line fill="none" stroke="#FFFFFF" stroke-miterlimit="10" x1="24.539" y1="87.418" x2="24.629" y2="80.757"/>
		<line fill="none" stroke="#FFFFFF" stroke-miterlimit="10" x1="20.806" y1="85.471" x2="24.629" y2="80.757"/>
		<line fill="none" stroke="#FFFFFF" stroke-miterlimit="10" x1="30.259" y1="83.978" x2="24.691" y2="87.127"/>
		<line fill="none" stroke="#FFFFFF" stroke-miterlimit="10" x1="20.958" y1="85.178" x2="19.597" y2="78.131"/>
		<line fill="none" stroke="#FFFFFF" stroke-miterlimit="10" x1="36.805" y1="87.095" x2="16.101" y2="76.287"/>
		<line fill="none" stroke="#FFFFFF" stroke-miterlimit="10" x1="34.669" y1="85.698" x2="33.71" y2="81.912"/>
		<line fill="none" stroke="#FFFFFF" stroke-miterlimit="10" x1="33.71" y1="81.912" x2="29.993" y2="76.83"/>
		<line fill="none" stroke="#FFFFFF" stroke-miterlimit="10" x1="33.71" y1="81.912" x2="30.459" y2="83.782"/>
		<line fill="none" stroke="#FFFFFF" stroke-miterlimit="10" x1="29.993" y1="76.83" x2="26.26" y2="74.882"/>
		<line fill="none" stroke="#FFFFFF" stroke-miterlimit="10" x1="26.553" y1="75.035" x2="20.496" y2="74.766"/>
		<line fill="none" stroke="#FFFFFF" stroke-miterlimit="10" x1="20.496" y1="74.766" x2="16.101" y2="76.287"/>
		<line fill="none" stroke="#FFFFFF" stroke-miterlimit="10" x1="20.496" y1="74.766" x2="19.547" y2="78.086"/>
		<line fill="none" stroke="#FFFFFF" stroke-miterlimit="10" x1="29.993" y1="76.83" x2="24.579" y2="80.713"/>
		<line fill="none" stroke="#FFFFFF" stroke-miterlimit="10" x1="26.26" y1="74.882" x2="24.579" y2="80.713"/>
		<line fill="none" stroke="#FFFFFF" stroke-miterlimit="10" x1="30.44" y1="83.49" x2="29.841" y2="77.123"/>
		<line fill="none" stroke="#FFFFFF" stroke-miterlimit="10" x1="26.107" y1="75.174" x2="19.547" y2="78.086"/>
	</g>
</g>
<circle fill="none" stroke="#FFFFFF" stroke-width="2" stroke-miterlimit="10" cx="57" cy="57.133" r="54.5"/>
</svg>
